<?xml version="1.0" encoding="UTF-8" standalone="no"?>
<!-- Created with Inkscape (http://www.inkscape.org/) -->

<svg
   version="1.1"
   id="svg824"
   xml:space="preserve"
   width="755.10669"
   height="213.61333"
   viewBox="0 0 755.10669 213.61333"
   sodipodi:docname="Knight Foundation.svg"
   inkscape:version="1.1 (c68e22c387, 2021-05-23)"
   xmlns:inkscape="http://www.inkscape.org/namespaces/inkscape"
   xmlns:sodipodi="http://sodipodi.sourceforge.net/DTD/sodipodi-0.dtd"
   xmlns="http://www.w3.org/2000/svg"
   xmlns:svg="http://www.w3.org/2000/svg"><defs
     id="defs828" /><sodipodi:namedview
     id="namedview826"
     pagecolor="#505050"
     bordercolor="#eeeeee"
     borderopacity="1"
     inkscape:pageshadow="0"
     inkscape:pageopacity="0"
     inkscape:pagecheckerboard="0"
     showgrid="false"
     inkscape:zoom="1.5812335"
     inkscape:cx="392.09895"
     inkscape:cy="63.557975"
     inkscape:window-width="1920"
     inkscape:window-height="1009"
     inkscape:window-x="-8"
     inkscape:window-y="-8"
     inkscape:window-maximized="1"
     inkscape:current-layer="g832" /><g
     id="g830"
     inkscape:groupmode="layer"
     inkscape:label="ink_ext_XXXXXX"
     transform="matrix(1.3333333,0,0,-1.3333333,0,213.61333)"><g
       id="g832"
       transform="scale(0.1)"><path
         id="path834"
         style="fill:#ffffff;fill-opacity:1;fill-rule:nonzero;stroke:none;stroke-width:0.133333"
         d="M 0,-0.00585938 V 213.61328 H 213.61914 V -0.00585938 Z M 51.878906,45.771484 H 82.371094 L 51.878906,92.910156 Z m 67.136714,0 h 57.98243 v 24.41211 h -57.98243 v 24.414062 h 51.88086 l -0.002,24.414064 h -51.87891 v 48.82617 L 79.535156,106.80469 Z M 51.878906,120.69727 82.371094,167.83789 H 51.878906 Z"
         transform="matrix(7.5000002,0,0,-7.5000002,0,1602.1)" /><path
         d="m 2111.02,1146.91 140.37,170.44 h 100.24 L 2210.17,1149.7 2363.89,908.52 h -105.27 l -109.16,168.77 -38.44,-45.69 V 908.52 h -90.22 v 408.83 h 90.22 v -170.44"
         style="fill:#ffffff;fill-opacity:1;fill-rule:nonzero;stroke:none"
         id="path838" /><path
         d="m 2648.54,908.52 -141.47,273.46 V 908.52 h -83.55 v 408.83 h 105.82 l 135.91,-277.38 v 277.38 h 83.55 V 908.52 h -100.26"
         style="fill:#ffffff;fill-opacity:1;fill-rule:nonzero;stroke:none"
         id="path840" /><path
         d="m 2967.85,966.434 h 41.22 V 908.52 h -172.1 v 57.914 h 41.2 v 292.976 h -41.2 v 57.94 h 172.1 v -57.94 h -41.22 V 966.434"
         style="fill:#ffffff;fill-opacity:1;fill-rule:nonzero;stroke:none"
         id="path842" /><path
         d="m 3252.86,1116.27 h 148.72 V 901.844 h -56.8 l -8.92,47.902 c -23.39,-30.094 -60.15,-47.902 -102.48,-47.902 -102.48,0 -162.64,69.625 -162.64,202.176 0,155.96 75.76,220.55 179.91,220.55 89.67,0 141.46,-52.91 142.01,-149.26 l -88.56,-6.68 c -1.09,67.39 -27.27,84.65 -59.58,84.65 -43.44,0 -78.54,-33.96 -78.54,-145.35 0,-100.27 32.85,-135.367 81.88,-135.367 37.86,0 72.41,23.964 74.63,78.547 h -69.63 v 65.16"
         style="fill:#ffffff;fill-opacity:1;fill-rule:nonzero;stroke:none"
         id="path844" /><path
         d="m 3815.44,908.52 h -90.77 V 1074.5 H 3585.42 V 908.52 h -90.23 v 408.83 h 90.23 v -168.77 h 139.25 v 168.77 h 90.77 V 908.52"
         style="fill:#ffffff;fill-opacity:1;fill-rule:nonzero;stroke:none"
         id="path846" /><path
         d="m 3990.36,1244.39 h -108.03 v 72.96 h 306.89 v -72.96 H 4081.16 V 908.52 h -90.8 v 335.87"
         style="fill:#ffffff;fill-opacity:1;fill-rule:nonzero;stroke:none"
         id="path848" /><path
         d="M 2242.47,402.738 H 2111.02 V 240.102 h -90.22 v 408.824 h 241.15 V 575.961 H 2111.02 V 473.48 h 131.45 v -70.742"
         style="fill:#ffffff;fill-opacity:1;fill-rule:nonzero;stroke:none"
         id="path850" /><path
         d="m 2574.17,447.852 c 0,94.679 -24.49,135.91 -76.85,135.91 -50.69,0 -83.55,-40.653 -83.55,-138.133 0,-96.918 25.06,-141.488 80.76,-141.488 54.03,0 79.64,42.347 79.64,143.711 z m -255.08,-5.012 c 0,135.89 70.17,213.308 181.02,213.308 113.62,0 168.74,-75.726 168.74,-206.628 0,-137.579 -60.13,-216.098 -177.11,-216.098 -116.95,0 -172.65,76.297 -172.65,209.418"
         style="fill:#ffffff;fill-opacity:1;fill-rule:nonzero;stroke:none"
         id="path852" /><path
         d="m 2970.74,648.926 h 89.13 V 386.602 c 0,-97.481 -52.36,-153.18 -163.19,-153.18 -117.52,0 -158.18,59.039 -158.18,156.508 v 258.996 h 88.56 V 413.871 c 0,-71.293 13.92,-108.609 72.39,-108.609 58.49,0 71.29,34.527 71.29,108.07 v 235.594"
         style="fill:#ffffff;fill-opacity:1;fill-rule:nonzero;stroke:none"
         id="path854" /><path
         d="M 3381.84,240.102 3240.37,513.559 V 240.102 h -83.55 v 408.824 h 105.82 l 135.91,-277.375 v 277.375 h 83.55 V 240.102 h -100.26"
         style="fill:#ffffff;fill-opacity:1;fill-rule:nonzero;stroke:none"
         id="path856" /><path
         d="m 3693.19,313.609 c 71.84,0 109.73,33.43 109.73,133.692 0,96.359 -34.52,128.66 -109.73,128.66 h -21.72 V 313.609 Z m -111.94,-73.507 v 408.824 h 100.23 c 154.85,0 214.46,-67.957 214.46,-196.067 0,-142.019 -59.61,-212.757 -215.55,-212.757 h -99.14"
         style="fill:#ffffff;fill-opacity:1;fill-rule:nonzero;stroke:none"
         id="path858" /><path
         d="m 4112.63,565.93 h -1.12 l -50.12,-162.641 h 103.03 z m 57.37,82.996 137.58,-408.824 h -92.47 l -31.18,94.136 h -141.47 l -30.09,-94.136 h -89.68 l 134.79,408.824 H 4170"
         style="fill:#ffffff;fill-opacity:1;fill-rule:nonzero;stroke:none"
         id="path860" /><path
         d="m 4416.19,575.961 h -108.03 v 72.965 h 306.89 V 575.961 H 4506.99 V 240.102 h -90.8 v 335.859"
         style="fill:#ffffff;fill-opacity:1;fill-rule:nonzero;stroke:none"
         id="path862" /><path
         d="m 4815.01,298.012 h 41.22 v -57.91 h -172.1 v 57.91 h 41.2 v 292.976 h -41.2 v 57.938 h 172.1 v -57.938 h -41.22 V 298.012"
         style="fill:#ffffff;fill-opacity:1;fill-rule:nonzero;stroke:none"
         id="path864" /><path
         d="m 5174.26,447.852 c 0,94.679 -24.48,135.91 -76.85,135.91 -50.69,0 -83.54,-40.653 -83.54,-138.133 0,-96.918 25.06,-141.488 80.75,-141.488 54.04,0 79.64,42.347 79.64,143.711 z m -255.08,-5.012 c 0,135.89 70.17,213.308 181.03,213.308 113.61,0 168.74,-75.726 168.74,-206.628 0,-137.579 -60.14,-216.098 -177.12,-216.098 -116.95,0 -172.65,76.297 -172.65,209.418"
         style="fill:#ffffff;fill-opacity:1;fill-rule:nonzero;stroke:none"
         id="path866" /><path
         d="M 5563.06,240.102 5421.6,513.559 V 240.102 h -83.55 v 408.824 h 105.82 l 135.91,-277.375 v 277.375 h 83.55 V 240.102 h -100.27"
         style="fill:#ffffff;fill-opacity:1;fill-rule:nonzero;stroke:none"
         id="path868" /></g></g></svg>
